<svg xmlns="http://www.w3.org/2000/svg" version="1.1" xmlns:xlink="http://www.w3.org/1999/xlink" xmlns:svgjs="http://svgjs.com/svgjs" width="560" height="1440" preserveAspectRatio="none" viewBox="0 0 560 1440"><g mask="url(&quot;#SvgjsMask1376&quot;)" fill="none"><rect width="560" height="1440" x="0" y="0" fill="url(#SvgjsLinearGradient1377)"></rect><path d="M0 0L276.69 0L0 158.61z" fill="rgba(255, 255, 255, .1)"></path><path d="M0 158.61L276.69 0L384.05 0L0 781.09z" fill="rgba(255, 255, 255, .075)"></path><path d="M0 781.09L384.05 0L433.74 0L0 1099.3400000000001z" fill="rgba(255, 255, 255, .05)"></path><path d="M0 1099.3400000000001L433.74 0L478.76 0L0 1151.3500000000001z" fill="rgba(255, 255, 255, .025)"></path><path d="M560 1440L328.71000000000004 1440L560 1358.78z" fill="rgba(0, 0, 0, .1)"></path><path d="M560 1358.78L328.71000000000004 1440L168.83000000000004 1440L560 876.93z" fill="rgba(0, 0, 0, .075)"></path><path d="M560 876.93L168.83000000000004 1440L139.29000000000005 1440L560 752.26z" fill="rgba(0, 0, 0, .05)"></path><path d="M560 752.26L139.29000000000002 1440L116.69000000000003 1440L560 459.21z" fill="rgba(0, 0, 0, .025)"></path></g><defs><mask id="SvgjsMask1376"><rect width="560" height="1440" fill="#ffffff"></rect></mask><linearGradient x1="0%" y1="50%" x2="100%" y2="50%" gradientUnits="userSpaceOnUse" id="SvgjsLinearGradient1377"><stop stop-color="rgba(232, 182, 65, 1)" offset="0"></stop><stop stop-color="rgba(218, 164, 40, 1)" offset="1"></stop></linearGradient></defs></svg>