<svg xmlns="http://www.w3.org/2000/svg" version="1.1" xmlns:xlink="http://www.w3.org/1999/xlink" xmlns:svgjs="http://svgjs.com/svgjs" width="560" height="1440" preserveAspectRatio="none" viewBox="0 0 560 1440"><g mask="url(&quot;#SvgjsMask1216&quot;)" fill="none"><rect width="560" height="1440" x="0" y="0" fill="url(#SvgjsRadialGradient1217)"></rect><path d="M560 0L554.86 0L560 302.11z" fill="rgba(255, 255, 255, .1)"></path><path d="M554.86 0L560 302.11L560 882.97L300.78 0z" fill="rgba(255, 255, 255, .075)"></path><path d="M300.78 0L560 882.97L560 1149.56L293.47999999999996 0z" fill="rgba(255, 255, 255, .05)"></path><path d="M293.47999999999996 0L560 1149.56L560 1229.73L104.88999999999996 0z" fill="rgba(255, 255, 255, .025)"></path><path d="M0 1440L19.31 1440L0 831.41z" fill="rgba(0, 0, 0, .1)"></path><path d="M0 831.41L19.31 1440L20.709999999999997 1440L0 651.14z" fill="rgba(0, 0, 0, .075)"></path><path d="M0 651.14L20.709999999999997 1440L329.35999999999996 1440L0 485z" fill="rgba(0, 0, 0, .05)"></path><path d="M0 485L329.35999999999996 1440L392.72999999999996 1440L0 385.85z" fill="rgba(0, 0, 0, .025)"></path></g><defs><mask id="SvgjsMask1216"><rect width="560" height="1440" fill="#ffffff"></rect></mask><radialGradient cx="50%" cy="50%" r="772.53" gradientUnits="userSpaceOnUse" id="SvgjsRadialGradient1217"><stop stop-color="#0e2a47" offset="0"></stop><stop stop-color="rgba(0, 0, 0, 1)" offset="1"></stop></radialGradient></defs></svg>